<svg version="1.1" id="Layer_1" xmlns="http://www.w3.org/2000/svg" xmlns:xlink="http://www.w3.org/1999/xlink" x="0px" y="0px"
	 width="100%" viewBox="0 0 1024 1024" enable-background="new 0 0 1024 1024" xml:space="preserve">
<path fill="#000000" opacity="1.000000" stroke="none" 
	d="
M477.958557,747.248535 
	C480.669800,745.485291 492.935333,746.748474 494.572723,748.626343 
	C495.543762,749.740112 495.367767,751.152588 495.301910,752.451233 
	C494.459747,769.062805 493.574097,785.672241 492.700653,802.282166 
	C492.246429,810.920410 491.766510,819.557495 491.350067,828.197571 
	C490.965576,836.174500 490.589691,844.152893 490.333435,852.134583 
	C490.226410,855.468689 488.899902,856.385071 485.587799,855.790405 
	C477.790924,854.390259 477.441711,853.891418 477.919983,846.210999 
	C478.953644,829.612061 479.915558,813.005310 480.596558,796.389038 
	C480.954895,787.645203 480.659912,778.874634 480.659912,770.600098 
	C477.326935,780.749329 473.782990,791.582275 470.211365,802.406189 
	C465.571136,816.468628 460.825378,830.497131 456.313904,844.600647 
	C455.159363,848.209839 453.529816,849.955017 449.508698,848.990906 
	C445.732330,848.085388 442.179657,847.987915 442.568756,842.215088 
	C444.112976,819.304504 445.242676,796.365784 446.471527,773.434570 
	C446.637573,770.336304 446.494415,767.221436 446.029022,763.935242 
	C441.527588,777.625305 437.034058,791.318054 432.522156,805.004639 
	C429.135742,815.277283 425.752167,825.551025 422.318054,835.807739 
	C419.456177,844.355286 418.049530,844.830017 409.337646,840.275024 
	C409.370880,836.754028 411.021820,833.582703 412.102020,830.324890 
	C421.581573,801.735779 431.311493,773.229126 440.674957,744.602539 
	C442.301605,739.629333 444.427612,738.090576 449.648254,739.260010 
	C459.949097,741.567566 459.873566,741.279785 458.663483,751.821106 
	C457.771881,759.588196 458.027100,767.435730 457.548492,775.246094 
	C456.888733,786.013306 457.383148,796.851257 457.383148,806.575134 
	C463.890350,787.778137 470.846039,767.685608 477.958557,747.248535 
z"/>
<path fill="#000000" opacity="1.000000" stroke="none" 
	d="
M383.888245,717.832886 
	C364.078888,743.355286 344.441315,768.556885 324.961578,793.879944 
	C322.572540,796.985596 320.805756,797.372131 317.786804,794.831665 
	C312.314362,790.226746 306.471130,786.063416 300.979309,781.480225 
	C290.488586,772.725098 289.193634,763.499634 296.717468,752.132202 
	C298.551697,749.360962 300.532562,746.671265 302.625702,744.089905 
	C307.859924,737.634827 310.059174,736.538391 321.759979,734.055969 
	C317.093842,715.735962 329.222839,705.181091 340.705078,694.920227 
	C347.667023,688.698730 356.287048,689.527710 363.874298,694.727051 
	C371.139862,699.705994 377.974518,705.311340 385.037231,710.589661 
	C388.974854,713.532410 385.177948,715.333862 383.888245,717.832886 
M346.431152,743.946228 
	C352.881775,737.917480 357.567627,730.443604 362.915527,723.532166 
	C371.378143,712.595215 372.637024,715.892761 360.213959,706.651123 
	C354.740814,702.579651 349.423035,703.236389 344.631592,708.285278 
	C340.632141,712.499634 337.121094,717.166687 334.183868,722.185486 
	C331.084595,727.481140 331.616730,731.810364 336.108215,736.116821 
	C339.081970,738.968079 342.574432,741.278259 346.431152,743.946228 
M314.470276,776.972656 
	C316.728271,778.891968 318.794006,780.692261 321.424011,777.175049 
	C326.498932,770.388062 331.781006,763.754395 337.047180,757.112732 
	C338.778290,754.929504 338.313171,753.509094 336.277771,751.721985 
	C325.528503,742.284119 320.045776,742.665527 311.260742,753.729309 
	C310.641022,754.509644 310.052673,755.316345 309.477997,756.130798 
	C303.258392,764.944763 303.810883,768.669861 312.321716,775.339355 
	C312.844910,775.749390 313.384674,776.138306 314.470276,776.972656 
z"/>
<path fill="#000000" opacity="1.000000" stroke="none" 
	d="
M284.666321,579.307251 
	C292.562653,589.036621 294.540497,600.978760 298.959229,611.851257 
	C300.024109,614.471436 297.883423,615.289673 295.912140,615.994751 
	C274.464752,623.666748 253.016235,631.335571 231.576340,639.028381 
	C222.188873,642.396729 212.765244,645.676025 203.470505,649.285339 
	C199.723083,650.740540 197.992996,649.705078 196.823837,646.097839 
	C194.414734,638.664978 191.519257,631.382568 189.299118,623.897278 
	C186.018875,612.838074 189.749954,603.840149 199.637527,597.942871 
	C205.840240,594.243347 212.829727,592.478760 219.538376,590.031372 
	C232.346573,585.358826 245.123413,580.594788 257.996429,576.107239 
	C267.179718,572.905945 276.258942,572.219849 284.666321,579.307251 
M241.990143,595.552917 
	C238.377151,596.818604 234.752213,598.051331 231.153687,599.356934 
	C223.803650,602.023743 216.393265,604.545288 209.148514,607.474792 
	C202.693298,610.085022 199.367020,614.843079 200.526962,619.922180 
	C201.627151,624.739563 203.152878,629.508118 205.638214,633.809265 
	C207.413864,634.055359 208.750916,633.355469 210.151810,632.854492 
	C231.774948,625.121582 253.399841,617.393433 275.035583,609.695862 
	C285.970917,605.805298 284.482605,607.091797 281.020203,597.110046 
	C277.588684,587.217407 272.455231,584.849304 262.474640,588.258545 
	C255.863220,590.516968 249.314819,592.959717 241.990143,595.552917 
z"/>
<path fill="#000000" opacity="1.000000" stroke="none" 
	d="
M426.570129,180.348450 
	C429.068146,179.727280 431.149384,179.078400 433.279724,178.780792 
	C445.722473,177.042496 453.122711,181.187363 457.456543,192.919830 
	C459.519714,198.505203 461.105774,204.357498 462.093872,210.225952 
	C463.290283,217.331284 462.251068,224.207504 455.761047,229.928482 
	C467.926086,233.605942 470.698792,243.214828 473.192383,253.069122 
	C475.221527,261.088135 476.694000,269.277679 480.593750,276.858276 
	C477.614471,279.208557 474.187561,279.321503 471.046204,280.030060 
	C467.980469,280.721588 467.140778,277.940918 466.266968,275.885468 
	C463.124268,268.493042 461.760773,260.563477 459.936279,252.813934 
	C456.821381,239.583298 449.589417,237.790680 436.320557,242.077347 
	C433.244812,243.070984 434.400208,245.493698 434.908203,247.519958 
	C437.776550,258.960938 440.478119,270.450623 443.691254,281.794891 
	C445.004059,286.429962 442.666779,287.442780 439.209381,288.059143 
	C436.039612,288.624268 432.361542,291.102203 430.963898,285.410706 
	C423.189392,253.751266 415.377380,222.100464 407.369873,190.499481 
	C406.359283,186.511185 407.534088,185.039871 411.187592,184.241562 
	C416.217346,183.142548 421.182953,181.749878 426.570129,180.348450 
M440.369568,191.660568 
	C434.021698,189.841629 428.312073,192.394653 422.579163,193.943893 
	C421.833160,195.932449 422.415131,197.494720 422.827911,199.099075 
	C424.729767,206.490494 426.615479,213.886337 428.452667,221.294067 
	C431.063019,231.819397 431.321381,231.968002 441.600861,228.063110 
	C448.570374,225.415604 450.551910,222.546997 449.825073,215.216370 
	C449.233154,209.246063 447.606659,203.462021 445.632416,197.803619 
	C444.796661,195.408112 443.297028,193.400787 440.369568,191.660568 
z"/>
<path fill="#000000" opacity="1.000000" stroke="none" 
	d="
M272.370728,342.650421 
	C265.756622,337.033264 259.311127,331.761536 253.097168,326.229675 
	C239.125168,313.791382 239.901031,297.040833 254.843277,285.776001 
	C263.948486,278.911713 275.166382,279.888153 285.924561,288.645142 
	C292.506989,294.003174 298.963013,299.517303 305.444824,304.997986 
	C313.960449,312.198334 322.652283,319.208496 330.880371,326.725159 
	C337.834106,333.077637 342.446320,340.954285 339.502502,350.740356 
	C336.508698,360.692596 329.998505,367.957336 319.604675,370.605255 
	C311.468719,372.677979 304.531372,369.068207 298.401520,364.224884 
	C289.654266,357.313660 281.215149,350.012451 272.370728,342.650421 
M274.203033,327.285431 
	C280.815735,332.868927 287.315247,338.594238 294.077271,343.990631 
	C299.394745,348.234253 303.962799,353.483704 310.180206,356.536896 
	C316.528351,359.654236 322.427307,357.776794 326.000549,351.699677 
	C329.229584,346.208038 327.791901,340.993744 321.053650,335.266357 
	C306.723694,323.086243 292.291595,311.026245 277.889465,298.931183 
	C277.000122,298.184296 276.038757,297.511078 275.057678,296.887360 
	C268.572235,292.764313 263.051605,293.413574 258.655579,298.788422 
	C254.148056,304.299591 254.396912,309.506866 260.073853,315.074341 
	C264.340515,319.258728 269.117310,322.922882 274.203033,327.285431 
z"/>
<path fill="#000000" opacity="1.000000" stroke="none" 
	d="
M707.618286,691.217651 
	C713.213135,692.838867 718.429321,694.319031 724.278015,695.978638 
	C723.430969,690.341431 722.403198,685.973389 718.362061,682.518311 
	C711.655884,676.784729 705.414551,670.509583 698.747864,664.727112 
	C695.965698,662.313965 695.401062,660.435120 698.381165,657.976868 
	C699.143127,657.348267 699.819702,656.566223 700.375366,655.746094 
	C702.785461,652.189819 705.020325,652.599365 708.004639,655.380432 
	C721.286804,667.758057 734.723572,679.970032 748.137085,692.206238 
	C758.596313,701.747559 768.945557,711.419189 779.653625,720.674194 
	C785.299927,725.554260 779.714417,727.581360 777.805603,730.568665 
	C775.320435,734.458191 773.076111,732.516968 770.627808,730.265808 
	C760.258362,720.731506 749.796692,711.297485 738.652344,702.311768 
	C743.578064,716.933960 748.462769,731.570190 753.444458,746.173279 
	C756.569885,755.335022 756.172119,756.628662 747.731750,762.244995 
	C745.696106,761.436157 745.711792,759.346497 745.157593,757.726379 
	C740.362793,743.708191 735.537231,729.697876 731.012695,715.591675 
	C729.854431,711.980774 727.931274,710.232788 724.337219,709.189392 
	C707.398987,704.272034 690.533569,699.102661 673.661377,693.960266 
	C671.963684,693.442810 669.995483,693.321594 668.815735,691.656311 
	C672.798035,683.256348 675.256348,682.013916 683.713684,684.361267 
	C691.571594,686.542236 699.398926,688.833801 707.618286,691.217651 
z"/>
<path fill="#000000" opacity="1.000000" stroke="none" 
	d="
M759.499390,583.541504 
	C762.337769,572.573120 764.127625,575.118286 753.828125,569.259949 
	C751.514343,567.943848 749.149780,566.713074 746.774231,565.510742 
	C744.390625,564.304382 743.458984,562.781311 744.221680,559.896301 
	C746.277893,552.118286 746.394226,551.914246 753.667786,555.740234 
	C782.093445,570.692505 810.451721,585.774170 838.951111,600.584351 
	C842.976013,602.675964 843.487061,604.793213 842.100647,608.821594 
	C838.173645,620.232361 838.320251,620.423706 826.275879,619.169678 
	C795.516541,615.966980 764.770935,612.631531 734.020142,609.346558 
	C732.729553,609.208740 731.309204,609.450378 730.153442,607.850647 
	C730.240234,604.942261 731.646301,602.084290 732.512878,599.097839 
	C733.177429,596.807190 734.978577,596.591858 736.884216,596.766479 
	C741.683838,597.206238 746.499146,597.575012 751.261108,598.286682 
	C753.887939,598.679321 755.279297,598.170532 755.951538,595.403381 
	C756.892761,591.529419 758.225525,587.750671 759.499390,583.541504 
M801.582336,594.006836 
	C792.208252,589.119629 783.090576,583.716797 772.864075,579.264526 
	C770.600281,586.386292 768.060364,592.897583 766.821899,600.209473 
	C785.640320,602.158569 803.835999,604.043213 822.031616,605.927795 
	C822.128967,605.580933 822.226318,605.234070 822.323669,604.887207 
	C815.632141,601.368347 808.940613,597.849426 801.582336,594.006836 
z"/>
<path fill="#000000" opacity="1.000000" stroke="none" 
	d="
M702.641602,280.643005 
	C711.678345,271.286316 720.456177,262.170929 729.258728,253.079529 
	C733.828979,248.359299 733.848755,248.378448 738.586426,253.034958 
	C743.162781,257.532928 743.138428,257.509399 738.407898,262.401215 
	C721.047058,280.354187 703.709351,298.329529 686.346252,316.280243 
	C684.362671,318.331024 682.612305,320.513306 681.408325,323.125946 
	C679.274048,327.757507 680.802185,331.602753 684.088501,334.903320 
	C687.354370,338.183411 691.139771,339.812927 695.851074,337.841248 
	C699.021484,336.514465 701.466187,334.303467 703.789978,331.910034 
	C721.304138,313.871033 738.907227,295.916260 756.221497,277.687164 
	C759.797241,273.922455 761.778320,275.353424 764.711182,278.087402 
	C767.822937,280.988312 768.611450,283.016937 765.129822,286.526520 
	C747.423889,304.374603 729.990723,322.493134 712.432129,340.487823 
	C710.576599,342.389496 708.687500,344.327576 706.537659,345.861481 
	C695.106262,354.017761 684.781677,352.972229 674.812561,342.806305 
	C665.669006,333.482239 664.786072,322.505280 673.321960,311.797913 
	C682.143311,300.732452 692.583923,291.087891 702.641602,280.643005 
z"/>
<path fill="#000000" opacity="1.000000" stroke="none" 
	d="
M275.075684,481.834991 
	C278.516754,482.440796 279.642303,484.258484 279.302765,487.245972 
	C278.890320,490.875000 278.529816,494.512939 278.275146,498.156006 
	C278.027985,501.691895 275.315002,501.806366 272.881561,502.059998 
	C256.339813,503.784088 239.788788,505.419189 223.242111,507.096161 
	C207.029358,508.739258 190.818573,510.401947 174.605621,512.043091 
	C173.138184,512.191589 171.637985,512.558289 170.233765,511.745636 
	C169.260574,510.575470 169.610550,509.198639 169.622833,507.899109 
	C169.704391,499.274750 169.794708,499.482880 178.606857,498.627747 
	C199.772629,496.573883 220.910828,494.236633 242.062515,492.036682 
	C247.502151,491.470917 252.950638,490.990448 258.585449,489.634216 
	C251.062912,487.531769 243.547058,485.405029 236.016525,483.331604 
	C216.620193,477.991089 197.215164,472.682190 177.818893,467.341492 
	C173.576584,466.173340 171.271179,458.544708 174.292831,455.426727 
	C175.857483,453.812134 177.732773,455.005951 179.443100,455.478149 
	C204.770493,462.470032 230.093933,469.476257 255.420853,476.469849 
	C261.832275,478.240265 268.252625,479.978363 275.075684,481.834991 
z"/>
<path fill="#000000" opacity="1.000000" stroke="none" 
	d="
M348.303253,288.257629 
	C345.261230,290.871887 342.591064,293.406952 339.610077,295.499207 
	C336.019287,298.019470 336.034241,300.129730 338.827850,303.514069 
	C345.495911,311.592133 351.556183,320.170380 358.179413,328.287567 
	C362.832031,333.989716 356.655975,334.723572 354.471191,337.216919 
	C351.791595,340.274963 349.837219,338.770782 347.760376,336.086853 
	C327.906342,310.429779 308.005768,284.808289 287.989410,259.277863 
	C285.415771,255.995270 285.699127,254.033127 289.059326,251.659225 
	C294.624817,247.727356 299.800507,243.244446 305.359711,239.302917 
	C315.769287,231.922440 325.589264,232.520248 334.638306,241.369217 
	C340.951630,247.543015 346.292267,254.627655 350.798431,262.230347 
	C356.138733,271.240356 355.645020,279.956451 348.303253,288.257629 
M323.268280,283.269318 
	C328.007568,289.797852 328.019989,289.813446 334.165466,284.913940 
	C335.593842,283.775177 336.971497,282.555725 338.258911,281.260498 
	C341.705200,277.793365 342.639557,273.778473 340.097931,269.464630 
	C335.945923,262.417633 331.052856,255.873901 325.181580,250.176529 
	C321.594360,246.695572 317.179138,245.991669 312.817657,248.780106 
	C309.352783,250.995300 306.164337,253.642807 302.372192,256.455078 
	C309.388336,265.444580 316.119934,274.069550 323.268280,283.269318 
z"/>
<path fill="#000000" opacity="1.000000" stroke="none" 
	d="
M802.452759,692.762451 
	C796.190857,696.215149 789.987061,696.007568 783.717224,694.258362 
	C779.678406,693.131470 776.053955,691.048340 772.432007,688.990234 
	C766.827515,685.805725 766.928162,685.600647 770.025269,679.815979 
	C772.029053,676.073425 774.069885,675.072021 777.781860,677.676270 
	C781.033936,679.958069 784.494507,682.048035 788.540222,682.764038 
	C794.670715,683.849060 798.580200,681.934021 801.278320,676.533936 
	C803.889404,671.308044 803.057190,666.624634 798.278320,662.737244 
	C795.329407,660.338379 791.995361,658.367371 788.682251,656.469727 
	C774.670776,648.444458 760.603455,640.516663 746.553406,632.558716 
	C744.235840,631.246094 741.922302,629.908447 739.271606,629.358887 
	C733.102478,628.079712 728.603394,630.182983 726.026062,635.531372 
	C723.459229,640.857971 724.498901,645.877747 729.600830,649.636841 
	C733.469482,652.487183 737.726562,654.843933 741.949707,657.168030 
	C744.894958,658.788818 745.495300,660.365662 743.694153,663.466187 
	C739.685242,670.367126 739.880432,670.418945 733.071899,666.538757 
	C727.712830,663.484619 722.338867,660.511414 718.162231,655.792603 
	C711.061829,647.770508 710.491394,637.772949 716.685303,627.673340 
	C722.871094,617.586914 731.441406,613.906860 742.015198,616.626831 
	C748.256775,618.232361 753.572083,621.672546 759.054626,624.808472 
	C773.215942,632.908447 787.486877,640.824280 801.499023,649.174377 
	C810.452942,654.510254 816.733276,661.997742 815.054810,673.266785 
	C813.856750,681.310242 809.449158,687.767029 802.452759,692.762451 
z"/>
<path fill="#000000" opacity="1.000000" stroke="none" 
	d="
M820.571045,462.415192 
	C813.517639,465.980255 809.620728,472.042847 805.789429,478.099457 
	C801.867249,484.299744 798.057251,490.522552 792.474915,495.476166 
	C783.131958,503.766846 772.300049,505.428192 760.742615,502.194153 
	C750.789246,499.408997 745.514526,490.992920 744.894226,478.662048 
	C744.431030,469.454163 748.987488,462.165192 757.677307,457.865662 
	C762.402832,455.527588 767.505005,454.856781 772.589050,454.030670 
	C774.508972,453.718719 775.864807,454.344757 776.185852,456.460297 
	C776.485413,458.434143 776.822388,460.402679 777.094788,462.380188 
	C777.434082,464.843658 776.355042,466.038940 773.850647,466.354218 
	C771.053101,466.706421 768.232422,467.166443 765.534851,467.962463 
	C759.084045,469.865906 756.645142,473.699799 757.348511,480.327148 
	C757.983215,486.307465 761.540344,490.009644 767.733093,490.549652 
	C773.964722,491.093018 779.553284,489.283508 784.331604,485.096832 
	C788.534668,481.414246 791.467346,476.770874 794.419067,472.132935 
	C798.538147,465.660950 802.670654,459.227081 808.826599,454.385162 
	C817.647095,447.447540 827.681458,446.230530 838.160278,448.633911 
	C847.734680,450.829895 853.473145,458.380157 854.278442,468.504303 
	C855.275024,481.033112 851.621338,488.260284 841.859802,492.730194 
	C839.605103,493.762665 837.216187,494.616882 834.800781,495.161957 
	C827.180542,496.881409 827.276611,496.790802 826.020935,489.263580 
	C825.447388,485.825653 826.109070,483.730042 829.968079,483.465637 
	C831.285339,483.375336 832.599182,483.025757 833.881714,482.674561 
	C840.119019,480.966675 843.082886,477.028931 842.636597,471.117157 
	C842.172485,464.969147 838.461914,461.135254 832.132324,460.415863 
	C828.240723,459.973541 824.517761,460.804535 820.571045,462.415192 
z"/>
<path fill="#000000" opacity="1.000000" stroke="none" 
	d="
M172.626282,554.309082 
	C171.929581,548.746277 171.273575,543.626465 170.657120,538.501831 
	C170.035324,533.333008 174.179031,534.275269 176.995728,533.718018 
	C179.935501,533.136475 182.038452,533.557495 182.406570,537.459900 
	C183.123352,545.058716 184.421783,552.600708 185.334137,560.183777 
	C185.700989,563.232849 186.716217,564.505798 190.147141,563.967896 
	C198.848099,562.603577 207.609024,561.614563 216.354233,560.542786 
	C219.928223,560.104736 221.121689,558.358582 220.457535,554.764893 
	C219.431763,549.214417 218.818069,543.589172 217.924072,538.012573 
	C217.481674,535.252930 218.564148,534.120300 221.276306,533.699463 
	C229.452072,532.430908 229.394333,532.356201 230.354202,540.715515 
	C230.885681,545.344055 231.677155,549.942932 232.199173,554.572327 
	C232.486404,557.119507 233.780746,558.099365 236.202621,557.784668 
	C245.777130,556.540588 255.344666,555.241394 264.925140,554.045715 
	C268.231323,553.633057 268.889160,551.869873 268.435638,548.830200 
	C267.306885,541.265015 266.622681,533.629822 265.365326,526.088623 
	C264.487305,520.822510 268.212616,521.406128 271.162933,520.926941 
	C274.272797,520.421692 276.923981,520.134338 277.414429,524.793579 
	C278.561401,535.690308 280.137085,546.546631 281.748840,557.388123 
	C282.790497,564.395203 282.931427,564.524719 275.864166,565.495728 
	C244.241150,569.840515 212.598419,574.044312 180.994827,578.524902 
	C176.896042,579.106079 175.570557,577.712646 175.153641,574.062500 
	C174.417252,567.615112 173.516342,561.186462 172.626282,554.309082 
z"/>
<path fill="#000000" opacity="1.000000" stroke="none" 
	d="
M370.895874,199.794647 
	C373.613617,198.438019 376.095276,197.403641 378.353607,196.007828 
	C381.473877,194.079300 383.609894,194.514313 384.915649,198.053009 
	C386.075562,201.196487 389.527893,204.391235 383.734955,206.893021 
	C377.014160,209.795486 370.567291,213.325638 363.919861,216.407242 
	C360.712097,217.894318 359.774475,219.611740 361.545410,222.994690 
	C365.483521,230.517517 369.293152,238.120407 372.791931,245.854965 
	C374.507935,249.648514 376.460632,249.772095 379.753845,247.984131 
	C384.580078,245.363907 389.703369,243.289383 394.519165,240.651962 
	C399.367340,237.996841 399.622498,242.264343 401.082214,244.676147 
	C402.658661,247.280762 403.649048,249.630081 399.650269,251.410706 
	C393.292114,254.241913 387.133209,257.520660 380.197998,260.952576 
	C385.700409,272.050446 390.980774,282.700439 396.478668,293.789124 
	C404.598389,289.833466 412.174774,286.078400 419.819519,282.468140 
	C421.508148,281.670685 423.449615,279.546112 425.240082,281.261047 
	C427.503693,283.429169 428.849426,286.467102 429.356720,289.598389 
	C429.593567,291.060303 427.810669,291.633484 426.651093,292.205200 
	C415.597961,297.654968 404.480164,302.975616 393.479523,308.528625 
	C389.723999,310.424316 388.877350,307.937408 387.665405,305.460083 
	C375.296265,280.176300 362.907562,254.902084 350.517426,229.628586 
	C348.758087,226.039871 347.180237,222.337708 345.124481,218.925308 
	C342.827637,215.112671 343.154449,212.916321 347.596283,210.996887 
	C355.386627,207.630478 362.919495,203.668320 370.895874,199.794647 
z"/>
<path fill="#000000" opacity="1.000000" stroke="none" 
	d="
M363.483582,807.453735 
	C368.024872,809.540100 372.226318,811.463989 376.962830,813.632874 
	C381.781708,803.675049 386.412842,794.129578 391.018311,784.571655 
	C392.204285,782.110352 390.305573,781.313660 388.649902,780.503296 
	C383.414307,777.940552 378.210266,775.303040 372.891876,772.922607 
	C367.442047,770.483276 370.993286,767.301270 371.959839,764.301025 
	C373.058563,760.890747 375.019592,760.601074 378.064911,762.197510 
	C383.223572,764.901733 388.582642,767.220764 393.805389,769.806885 
	C396.169647,770.977539 397.719666,770.838745 398.977692,768.172913 
	C403.029053,759.587524 407.198944,751.056152 411.459869,742.572571 
	C412.991913,739.522278 412.385498,737.774719 409.236664,736.344116 
	C402.263641,733.176086 395.480743,729.586182 388.483002,726.477356 
	C384.530487,724.721375 385.377777,722.364746 387.003632,719.718994 
	C388.485504,717.307678 388.697357,713.121216 393.592316,715.582825 
	C404.453339,721.044678 415.426727,726.286560 426.415405,731.489014 
	C429.273590,732.842163 429.963715,734.315247 428.507599,737.304932 
	C413.996338,767.098999 399.576996,796.938049 385.194489,826.794617 
	C383.878479,829.526550 382.363922,829.942566 379.682404,828.613037 
	C368.939056,823.286194 358.192352,817.953125 347.288452,812.969116 
	C342.484863,810.773560 344.321381,808.176208 345.710815,804.985840 
	C347.255096,801.439941 349.048279,799.906738 352.873047,802.140747 
	C356.173462,804.068359 359.711029,805.590027 363.483582,807.453735 
z"/>
<path fill="#000000" opacity="1.000000" stroke="none" 
	d="
M186.500488,407.635925 
	C188.191330,402.161224 189.766388,397.072205 191.335205,391.981232 
	C193.045593,386.430847 196.654449,389.969177 199.472336,390.398682 
	C202.355682,390.838226 203.756958,392.227692 202.628220,395.643097 
	C199.766357,404.302704 197.266342,413.081848 194.452240,422.371643 
	C205.082092,425.590698 215.241150,428.668457 225.401154,431.743103 
	C227.988800,432.526154 228.527008,430.662933 229.095978,428.859131 
	C230.798309,423.462097 232.815903,418.138580 234.104553,412.644257 
	C235.414612,407.058594 238.645966,408.922089 242.058105,409.774872 
	C245.621567,410.665527 247.168900,412.037872 245.715225,416.053619 
	C243.405228,422.434967 241.630737,429.010162 239.396667,436.259583 
	C250.583344,439.719788 261.320557,443.078156 272.085754,446.344147 
	C274.720459,447.143463 275.102783,444.865448 275.637085,443.200348 
	C277.976501,435.910004 280.467499,428.654327 282.413513,421.257172 
	C283.520996,417.047394 285.690918,416.906921 288.991333,418.208984 
	C291.946899,419.375000 295.686157,419.403595 293.913544,424.670746 
	C290.144714,435.869324 286.777649,447.207703 283.468933,458.553833 
	C282.433960,462.103027 280.986908,462.857361 277.371735,461.719086 
	C246.571945,452.021423 215.732742,442.446381 184.840363,433.048248 
	C180.168121,431.626862 179.177444,429.578125 180.882355,425.123871 
	C183.019897,419.539307 184.575287,413.731934 186.500488,407.635925 
z"/>
<path fill="#000000" opacity="1.000000" stroke="none" 
	d="
M696.481079,222.486832 
	C701.993835,225.976074 707.108276,229.428986 712.436157,232.513016 
	C715.452209,234.258820 715.901184,235.873108 713.990723,238.839798 
	C709.807068,245.336609 709.957092,245.378799 703.531189,241.223511 
	C698.358276,237.878464 693.049072,234.740540 687.931946,231.314148 
	C685.354126,229.588058 683.682922,229.515167 681.905273,232.433289 
	C676.708740,240.963776 671.347046,249.395844 665.921021,257.782990 
	C664.451233,260.054962 665.024292,261.333801 667.117249,262.617035 
	C671.658813,265.401642 676.006836,268.524445 680.663147,271.093658 
	C686.229675,274.165161 682.283813,276.904724 680.781921,279.890533 
	C679.101318,283.231689 677.131714,283.570312 674.094116,281.349243 
	C670.337769,278.602570 666.136658,276.460022 662.410339,273.677887 
	C658.975464,271.113342 656.948853,271.312469 654.608704,275.214874 
	C648.530762,285.350372 641.848999,295.124207 635.789734,305.270233 
	C633.287659,309.459991 630.996887,308.839661 627.854004,306.463287 
	C625.075378,304.362427 621.175659,303.512238 624.553467,298.283600 
	C641.810120,271.571411 658.706787,244.626755 675.750549,217.776825 
	C679.591187,211.726501 679.636719,211.740524 685.661682,215.554611 
	C689.178406,217.780884 692.669495,220.047577 696.481079,222.486832 
z"/>
<path fill="#000000" opacity="1.000000" stroke="none" 
	d="
M773.387024,525.593018 
	C794.067444,527.243652 814.286499,528.857239 834.505493,530.472107 
	C834.671143,530.485291 834.834778,530.521606 835.000183,530.539551 
	C842.995544,531.407776 843.060181,531.377930 844.278687,523.355591 
	C844.527466,521.717651 844.604858,520.046631 844.658569,518.387451 
	C844.866333,511.970184 848.323730,509.819427 854.434265,512.197632 
	C856.215271,512.890808 856.546692,514.078125 856.428040,515.710754 
	C855.330566,530.812378 854.248230,545.915161 853.146606,561.016541 
	C853.005066,562.957458 852.030151,563.906860 849.956787,564.057556 
	C843.010315,564.562561 841.489563,563.232788 841.662659,556.451660 
	C841.700867,554.953369 841.692505,553.450439 841.812988,551.958313 
	C842.488892,543.589294 842.488953,543.743896 834.283569,543.149292 
	C807.235901,541.189026 780.195068,539.130981 753.156006,537.053894 
	C747.227661,536.598511 747.366943,536.327271 747.608948,528.254700 
	C747.757446,523.304260 750.772705,523.540771 754.046997,523.814026 
	C760.344482,524.339539 766.633301,524.969360 773.387024,525.593018 
z"/>
<path fill="#000000" opacity="1.000000" stroke="none" 
	d="
M284.465820,396.505310 
	C285.676880,397.140594 286.615784,397.524933 287.432831,398.086548 
	C291.044373,400.569031 293.278748,399.666412 295.158447,395.705963 
	C298.008514,389.701019 301.516724,384.010040 304.411163,378.024109 
	C307.003143,372.663849 309.900848,376.060577 312.922607,377.248627 
	C316.333160,378.589569 316.994354,380.350769 315.120575,383.694214 
	C309.591217,393.560272 304.221161,403.521118 299.045898,413.577179 
	C297.192078,417.179321 295.213226,417.311493 291.956757,415.535828 
	C263.624420,400.087097 235.226349,384.759003 206.877533,369.340393 
	C201.819366,366.589325 202.122818,366.590820 205.611191,359.482605 
	C207.671173,355.285004 209.843216,356.059998 213.062073,357.816345 
	C236.717224,370.723480 260.437683,383.510895 284.465820,396.505310 
z"/>
<path fill="#000000" opacity="1.000000" stroke="none" 
	d="
M723.473877,359.514709 
	C719.919312,361.938232 716.661682,364.156494 713.104431,366.578857 
	C718.051880,373.860504 722.675476,380.538666 727.134216,387.325226 
	C728.135071,388.848602 730.315735,390.679993 728.387817,392.590149 
	C726.306152,394.652466 724.038574,396.908752 721.023193,397.487061 
	C719.067139,397.862213 718.447083,395.674347 717.550476,394.372040 
	C711.415039,385.460236 705.538696,376.361389 699.153198,367.634308 
	C696.232300,363.642242 696.949463,361.579529 700.826233,358.967407 
	C723.191406,343.898132 745.422180,328.629395 767.692749,313.419861 
	C772.091858,310.415466 776.527588,307.458801 780.828369,304.318359 
	C783.377563,302.456909 785.309082,302.530304 786.988586,305.328369 
	C787.672424,306.467712 788.405640,307.603851 789.280151,308.597351 
	C791.753113,311.406799 791.143433,313.251587 788.068848,315.335999 
	C766.576965,329.906525 745.190796,344.632996 723.473877,359.514709 
z"/>
<path fill="#000000" opacity="1.000000" stroke="none" 
	d="
M744.309326,389.235352 
	C767.676941,378.977234 790.687805,368.854980 813.748352,358.847076 
	C815.524353,358.076294 817.773132,355.813690 819.563477,358.218964 
	C821.617981,360.979126 823.550903,364.172058 823.432922,367.738617 
	C823.367188,369.727814 820.742615,369.965607 819.137695,370.670074 
	C797.337769,380.239136 775.510437,389.745850 753.689575,399.267242 
	C749.875122,400.931610 746.139160,402.820465 742.222595,404.194122 
	C737.986389,405.679962 736.949341,407.674835 739.103210,411.923035 
	C742.109009,417.851624 744.269287,424.203613 747.145325,430.204834 
	C749.708435,435.552856 745.306763,435.754822 742.473511,437.351532 
	C739.146912,439.226288 737.516907,438.124542 736.097168,434.762177 
	C731.190979,423.142944 726.013245,411.638428 720.648376,399.429169 
	C728.776245,395.933167 736.370667,392.666626 744.309326,389.235352 
z"/>
<path fill="#000000" opacity="1.000000" stroke="none" 
	d="
M559.664856,274.539673 
	C558.933167,277.029724 559.873596,280.377899 556.789551,280.645050 
	C553.561035,280.924744 550.127869,280.323395 547.195374,278.622284 
	C546.660034,278.311737 546.624207,276.779846 546.707336,275.842804 
	C546.853455,274.197327 547.289001,272.579132 547.569275,270.943665 
	C548.817261,263.660431 551.968201,262.049957 558.760742,265.134003 
	C560.422180,265.888336 560.929932,267.021454 560.632629,268.715424 
	C560.316345,270.517731 560.052490,272.329315 559.664856,274.539673 
z"/>
<path fill="#000000" opacity="1.000000" stroke="none" 
	d="
M597.119019,740.073425 
	C599.614197,747.726196 598.192322,750.605286 590.336426,750.700623 
	C584.279785,750.774231 586.376709,743.816711 584.054626,740.438721 
	C582.828491,738.654907 583.194946,736.562195 585.842896,735.795105 
	C586.477905,735.611145 587.101074,735.385132 587.725403,735.166199 
	C594.479065,732.798706 594.478821,732.798096 597.119019,740.073425 
z"/>
</svg>